<mxfile host="drawio-plugin" modified="2022-02-13T14:28:03.168Z" agent="5.0 (Macintosh; Intel Mac OS X 12_0_1) AppleWebKit/537.36 (KHTML, like Gecko) Chrome/89.0.4389.114 Safari/537.36" etag="JbF1HJdEpjJFu_yznOMo" version="15.5.4" type="embed"><diagram id="23iRSUPoRavnBvh4doch" name="Page-1"><mxGraphModel dx="935" dy="456" grid="1" gridSize="10" guides="1" tooltips="1" connect="1" arrows="1" fold="1" page="1" pageScale="1" pageWidth="827" pageHeight="1169" math="0" shadow="0"><root><mxCell id="0"/><mxCell id="1" parent="0"/><mxCell id="2" style="edgeStyle=orthogonalEdgeStyle;rounded=0;orthogonalLoop=1;jettySize=auto;html=1;" edge="1" parent="1" source="3" target="9"><mxGeometry relative="1" as="geometry"/></mxCell><mxCell id="3" value="START" style="rounded=1;whiteSpace=wrap;html=1;" vertex="1" parent="1"><mxGeometry x="299" y="30" width="120" height="60" as="geometry"/></mxCell><mxCell id="33" style="edgeStyle=orthogonalEdgeStyle;rounded=0;orthogonalLoop=1;jettySize=auto;html=1;" edge="1" parent="1" source="7" target="31"><mxGeometry relative="1" as="geometry"><Array as="points"><mxPoint x="200" y="400"/></Array></mxGeometry></mxCell><mxCell id="34" value="YES" style="edgeLabel;html=1;align=center;verticalAlign=middle;resizable=0;points=[];" vertex="1" connectable="0" parent="33"><mxGeometry x="0.1111" y="2" relative="1" as="geometry"><mxPoint as="offset"/></mxGeometry></mxCell><mxCell id="61" value="NO" style="edgeStyle=orthogonalEdgeStyle;rounded=0;orthogonalLoop=1;jettySize=auto;html=1;" edge="1" parent="1" source="7" target="58"><mxGeometry relative="1" as="geometry"/></mxCell><mxCell id="7" value="if i is smaller than size of intik - 1" style="rhombus;whiteSpace=wrap;html=1;" vertex="1" parent="1"><mxGeometry x="319" y="360" width="80" height="80" as="geometry"/></mxCell><mxCell id="8" style="edgeStyle=orthogonalEdgeStyle;rounded=0;orthogonalLoop=1;jettySize=auto;html=1;entryX=0.5;entryY=0;entryDx=0;entryDy=0;" edge="1" parent="1" source="9" target="11"><mxGeometry relative="1" as="geometry"/></mxCell><mxCell id="9" value="Input value into intik" style="shape=parallelogram;perimeter=parallelogramPerimeter;whiteSpace=wrap;html=1;fixedSize=1;" vertex="1" parent="1"><mxGeometry x="284" y="150" width="150" height="60" as="geometry"/></mxCell><mxCell id="30" style="edgeStyle=orthogonalEdgeStyle;rounded=0;orthogonalLoop=1;jettySize=auto;html=1;" edge="1" parent="1" source="11" target="7"><mxGeometry relative="1" as="geometry"/></mxCell><mxCell id="11" value="i = 0" style="rounded=0;whiteSpace=wrap;html=1;" vertex="1" parent="1"><mxGeometry x="299" y="260" width="120" height="60" as="geometry"/></mxCell><mxCell id="36" style="edgeStyle=orthogonalEdgeStyle;rounded=0;orthogonalLoop=1;jettySize=auto;html=1;" edge="1" parent="1" source="31" target="35"><mxGeometry relative="1" as="geometry"/></mxCell><mxCell id="31" value="min_index = i" style="rounded=0;whiteSpace=wrap;html=1;" vertex="1" parent="1"><mxGeometry x="140" y="420" width="120" height="60" as="geometry"/></mxCell><mxCell id="38" style="edgeStyle=orthogonalEdgeStyle;rounded=0;orthogonalLoop=1;jettySize=auto;html=1;" edge="1" parent="1" source="35" target="37"><mxGeometry relative="1" as="geometry"/></mxCell><mxCell id="35" value="j = i + 1" style="rounded=0;whiteSpace=wrap;html=1;" vertex="1" parent="1"><mxGeometry x="140" y="500" width="120" height="60" as="geometry"/></mxCell><mxCell id="41" style="edgeStyle=orthogonalEdgeStyle;rounded=0;orthogonalLoop=1;jettySize=auto;html=1;" edge="1" parent="1" source="37" target="39"><mxGeometry relative="1" as="geometry"/></mxCell><mxCell id="56" value="YES" style="edgeLabel;html=1;align=center;verticalAlign=middle;resizable=0;points=[];" vertex="1" connectable="0" parent="41"><mxGeometry x="0.1655" y="1" relative="1" as="geometry"><mxPoint as="offset"/></mxGeometry></mxCell><mxCell id="42" value="NO" style="edgeStyle=orthogonalEdgeStyle;rounded=0;orthogonalLoop=1;jettySize=auto;html=1;" edge="1" parent="1" source="37" target="40"><mxGeometry relative="1" as="geometry"/></mxCell><mxCell id="37" value="if j is smaller than i" style="rhombus;whiteSpace=wrap;html=1;" vertex="1" parent="1"><mxGeometry x="320" y="490" width="80" height="80" as="geometry"/></mxCell><mxCell id="48" value="" style="edgeStyle=orthogonalEdgeStyle;rounded=0;orthogonalLoop=1;jettySize=auto;html=1;" edge="1" parent="1" source="39" target="47"><mxGeometry relative="1" as="geometry"/></mxCell><mxCell id="49" value="YES" style="edgeLabel;html=1;align=center;verticalAlign=middle;resizable=0;points=[];" vertex="1" connectable="0" parent="48"><mxGeometry x="-0.4222" relative="1" as="geometry"><mxPoint as="offset"/></mxGeometry></mxCell><mxCell id="50" style="edgeStyle=orthogonalEdgeStyle;rounded=0;orthogonalLoop=1;jettySize=auto;html=1;entryX=1;entryY=1;entryDx=0;entryDy=0;exitX=1;exitY=0.5;exitDx=0;exitDy=0;" edge="1" parent="1" source="39" target="37"><mxGeometry relative="1" as="geometry"><Array as="points"><mxPoint x="400" y="550"/></Array></mxGeometry></mxCell><mxCell id="52" value="NO" style="edgeLabel;html=1;align=center;verticalAlign=middle;resizable=0;points=[];" vertex="1" connectable="0" parent="50"><mxGeometry x="0.3347" relative="1" as="geometry"><mxPoint as="offset"/></mxGeometry></mxCell><mxCell id="39" value="if j-element of intik is smaller than min_index-element of intik" style="rhombus;whiteSpace=wrap;html=1;" vertex="1" parent="1"><mxGeometry x="320" y="610" width="80" height="80" as="geometry"/></mxCell><mxCell id="45" value="" style="edgeStyle=orthogonalEdgeStyle;rounded=0;orthogonalLoop=1;jettySize=auto;html=1;" edge="1" parent="1" source="40" target="44"><mxGeometry relative="1" as="geometry"/></mxCell><mxCell id="40" value="Swap min_index-element of intik and i-element of intik" style="rounded=0;whiteSpace=wrap;html=1;" vertex="1" parent="1"><mxGeometry x="450" y="500" width="120" height="60" as="geometry"/></mxCell><mxCell id="57" style="edgeStyle=orthogonalEdgeStyle;rounded=0;orthogonalLoop=1;jettySize=auto;html=1;entryX=0.638;entryY=0.875;entryDx=0;entryDy=0;entryPerimeter=0;" edge="1" parent="1" source="44" target="7"><mxGeometry relative="1" as="geometry"><mxPoint x="380" y="450" as="targetPoint"/><Array as="points"><mxPoint x="390" y="430"/><mxPoint x="390" y="430"/></Array></mxGeometry></mxCell><mxCell id="44" value="i = i +1" style="whiteSpace=wrap;html=1;rounded=0;" vertex="1" parent="1"><mxGeometry x="450" y="410" width="120" height="60" as="geometry"/></mxCell><mxCell id="54" value="" style="edgeStyle=orthogonalEdgeStyle;rounded=0;orthogonalLoop=1;jettySize=auto;html=1;" edge="1" parent="1" source="47" target="53"><mxGeometry relative="1" as="geometry"/></mxCell><mxCell id="47" value="min_index = j" style="whiteSpace=wrap;html=1;" vertex="1" parent="1"><mxGeometry x="300" y="730" width="120" height="60" as="geometry"/></mxCell><mxCell id="55" style="edgeStyle=orthogonalEdgeStyle;rounded=0;orthogonalLoop=1;jettySize=auto;html=1;entryX=0;entryY=1;entryDx=0;entryDy=0;" edge="1" parent="1" source="53" target="37"><mxGeometry relative="1" as="geometry"><Array as="points"><mxPoint x="240" y="570"/><mxPoint x="340" y="570"/></Array></mxGeometry></mxCell><mxCell id="53" value="j = j + 1" style="whiteSpace=wrap;html=1;" vertex="1" parent="1"><mxGeometry x="150" y="730" width="120" height="60" as="geometry"/></mxCell><mxCell id="60" style="edgeStyle=orthogonalEdgeStyle;rounded=0;orthogonalLoop=1;jettySize=auto;html=1;" edge="1" parent="1" source="58" target="59"><mxGeometry relative="1" as="geometry"/></mxCell><mxCell id="58" value="Output intik" style="shape=parallelogram;perimeter=parallelogramPerimeter;whiteSpace=wrap;html=1;fixedSize=1;" vertex="1" parent="1"><mxGeometry x="435" y="320" width="150" height="60" as="geometry"/></mxCell><mxCell id="59" value="END" style="rounded=1;whiteSpace=wrap;html=1;" vertex="1" parent="1"><mxGeometry x="450" y="220" width="120" height="60" as="geometry"/></mxCell></root></mxGraphModel></diagram></mxfile>